<svg xmlns="http://www.w3.org/2000/svg"  
    viewBox="0 0 48 48"
    fill="none"
    stroke="#000"
    stroke-width="4"
    stroke-miterlimit="10"
    stroke-linecap="round" 
    stroke-linejoin="round">
        <path 
            d="M8.4,13.5l0.6-2.3c0.8-2.4,3-4,5.5-4h0c3.6,0,6.3,3.2,5.8,6.7l-0.1,1.4"/>
        <line 
            x1="3.9" 
            x2="6.9" 
            y1="29.6" 
            y2="19.1"/>
        <circle 
            cx="11" 
            cy="32" 
            r="7.5"/>
        <path 
            d="M40.7,17.3l-1.8-6.2c-0.8-2.4-3-4-5.5-4h0c-3.6,0-6.3,3.2-5.8,6.7l0.2,1.3"/>
        <line 
            x1="44.1" 
            x2="41.9" 
            y1="29.6" 
            y2="21.8"/>
        <path 
            d="M29.5,32c0,4.1,3.4,7.5,7.5,7.5s7.5-3.4,7.5-7.5s-3.4-7.5-7.5-7.5S29.5,27.9,29.5,32"/>
        <path 
            d="M20.3,15.3c2.3-1.4,5.2-1.4,7.5,0"/>
        <path 
            d="M17.9,28.9c3.7,2.4,8.5,2.4,12.2,0"/>
</svg>